<svg width="183" height="200" viewBox="0 0 183 200" fill="none" xmlns="http://www.w3.org/2000/svg">
<path d="M69.2857 20.7865C95.3836 11.0966 111.119 23.1239 115.725 30.3488C90.1384 11.9891 68.9872 22.6989 61.6099 30.3488C41.755 57.2764 65.0213 74.7182 79.1364 80.0731C58.4628 77.2171 51.7592 61.7134 50.9916 54.3185C49.6611 34.1228 62.6333 23.5489 69.2857 20.7865Z" fill="#EB5757"/>
<path d="M112.91 68.4708H109.328L112.27 73.8257L114.829 71.6582L112.91 68.4708Z" fill="#EB5757"/>
<path d="M100.757 104.68L98.9657 102.003C72.6631 105.267 51.6739 95.6279 44.4671 90.4004C58.8977 106.924 88.0062 106.805 100.757 104.68Z" fill="#EB5757"/>
<path d="M114.445 121V118.323H140.799L124.68 93.0779C129.669 90.0179 150.65 78.7981 151.801 50.876C152.722 28.5383 136.407 12.1591 128.134 6.76167C135.682 10.4591 155.127 21.9339 154.999 50.876C154.897 74.0297 137.814 89.593 129.285 94.4804L146.044 121H114.445Z" fill="#EB5757"/>
<path fill-rule="evenodd" clip-rule="evenodd" d="M87.5798 0.00425612C82.0362 -0.0807426 67.9552 1.07524 55.9809 6.37916C41.013 13.0091 27.8361 29.8388 27.0685 46.7961C26.301 63.7533 31.802 80.2006 52.6547 89.8904C72.0631 98.9091 83.7139 97.9876 96.2714 96.9942C97.2059 96.9203 98.1454 96.846 99.0936 96.7754L109.712 113.35H130.181L117.26 92.3129C124.04 88.998 138.599 79.5631 142.59 68.3433C147.579 54.3185 148.347 43.4811 142.59 28.1814C136.833 12.8816 119.179 0.00425612 87.5798 0.00425612ZM54.5737 25.3764C59.9468 18.704 77.1662 7.14414 103.059 14.284C135.426 23.2089 134.914 67.9608 109.584 80.2006L100.373 65.9208H79.904L92.0574 85.3005C81.9509 86.363 59.4862 84.4335 50.4799 68.2158C39.222 47.9436 50.7357 29.1577 54.5737 25.3764Z" fill="#EB5757"/>
<path d="M1.75 158.8C1.75 156.2 2.15 153.9 2.95 151.9C3.78333 149.9 4.9 148.233 6.3 146.9C7.73333 145.533 9.4 144.5 11.3 143.8C13.2333 143.1 15.3167 142.75 17.55 142.75C19.7833 142.75 21.85 143.1 23.75 143.8C25.6833 144.5 27.3667 145.533 28.8 146.9C30.2333 148.233 31.35 149.9 32.15 151.9C32.9833 153.9 33.4 156.2 33.4 158.8C33.4 162.067 32.8 164.85 31.6 167.15C30.4 169.417 28.7667 171.2 26.7 172.5C27.2 172.733 27.7833 172.983 28.45 173.25C29.15 173.517 29.8667 173.783 30.6 174.05C31.3667 174.317 32.15 174.567 32.95 174.8C33.75 175.067 34.5 175.3 35.2 175.5C35.2333 175.7 35.25 175.867 35.25 176C35.25 176.167 35.25 176.317 35.25 176.45C35.25 178.35 34.75 179.733 33.75 180.6C32.7833 181.467 31.5 181.9 29.9 181.9C28.3667 181.9 26.7833 181.467 25.15 180.6C23.5167 179.767 21.85 178.55 20.15 176.95L17.95 174.9H17.55C15.2833 174.9 13.1833 174.55 11.25 173.85C9.31667 173.117 7.65 172.067 6.25 170.7C4.85 169.333 3.75 167.65 2.95 165.65C2.15 163.65 1.75 161.367 1.75 158.8ZM10.75 158.8C10.75 161.833 11.3667 164.1 12.6 165.6C13.8333 167.1 15.4833 167.85 17.55 167.85C19.65 167.85 21.3167 167.1 22.55 165.6C23.7833 164.1 24.4 161.833 24.4 158.8C24.4 155.8 23.7833 153.55 22.55 152.05C21.35 150.55 19.7 149.8 17.6 149.8C15.5333 149.8 13.8667 150.55 12.6 152.05C11.3667 153.517 10.75 155.767 10.75 158.8ZM65.3539 162.8C65.3539 164.6 65.0372 166.25 64.4039 167.75C63.8039 169.217 62.9206 170.483 61.7539 171.55C60.5872 172.583 59.1706 173.383 57.5039 173.95C55.8372 174.517 53.9539 174.8 51.8539 174.8C49.7539 174.8 47.8706 174.517 46.2039 173.95C44.5372 173.383 43.1206 172.583 41.9539 171.55C40.7872 170.483 39.8872 169.217 39.2539 167.75C38.6539 166.25 38.3539 164.6 38.3539 162.8V143.7C38.7206 143.633 39.3039 143.55 40.1039 143.45C40.9039 143.317 41.6706 143.25 42.4039 143.25C43.1706 143.25 43.8372 143.317 44.4039 143.45C45.0039 143.55 45.5039 143.75 45.9039 144.05C46.3039 144.35 46.6039 144.767 46.8039 145.3C47.0039 145.833 47.1039 146.533 47.1039 147.4V162.65C47.1039 164.25 47.5372 165.5 48.4039 166.4C49.3039 167.3 50.4539 167.75 51.8539 167.75C53.2872 167.75 54.4372 167.3 55.3039 166.4C56.1706 165.5 56.6039 164.25 56.6039 162.65V143.7C56.9706 143.633 57.5539 143.55 58.3539 143.45C59.1539 143.317 59.9206 143.25 60.6539 143.25C61.4206 143.25 62.0872 143.317 62.6539 143.45C63.2539 143.55 63.7539 143.75 64.1539 144.05C64.5539 144.35 64.8539 144.767 65.0539 145.3C65.2539 145.833 65.3539 146.533 65.3539 147.4V162.8ZM80.457 173.8C80.0904 173.9 79.507 174 78.707 174.1C77.9404 174.2 77.1737 174.25 76.407 174.25C75.6404 174.25 74.957 174.183 74.357 174.05C73.7904 173.95 73.307 173.75 72.907 173.45C72.507 173.15 72.207 172.733 72.007 172.2C71.807 171.667 71.707 170.967 71.707 170.1V143.7C72.0737 143.633 72.657 143.55 73.457 143.45C74.257 143.317 75.0237 143.25 75.757 143.25C76.5237 143.25 77.1904 143.317 77.757 143.45C78.357 143.55 78.857 143.75 79.257 144.05C79.657 144.35 79.957 144.767 80.157 145.3C80.357 145.833 80.457 146.533 80.457 147.4V173.8ZM99.0914 150.7H86.7914C86.5581 150.333 86.3414 149.833 86.1414 149.2C85.9414 148.567 85.8414 147.9 85.8414 147.2C85.8414 145.9 86.1247 144.967 86.6914 144.4C87.2914 143.833 88.0581 143.55 88.9914 143.55H107.641C109.108 144.75 109.841 146.35 109.841 148.35C109.841 149.183 109.641 150.017 109.241 150.85C108.875 151.65 108.391 152.417 107.791 153.15L96.4414 166.85H109.241C109.475 167.217 109.691 167.717 109.891 168.35C110.091 168.983 110.191 169.65 110.191 170.35C110.191 171.65 109.891 172.583 109.291 173.15C108.725 173.717 107.975 174 107.041 174H87.3414C86.7747 173.533 86.3081 172.9 85.9414 172.1C85.5747 171.3 85.3914 170.383 85.3914 169.35C85.3914 168.517 85.6081 167.667 86.0414 166.8C86.4747 165.933 86.9914 165.133 87.5914 164.4L99.0914 150.7ZM127.314 150.7H115.014C114.781 150.333 114.564 149.833 114.364 149.2C114.164 148.567 114.064 147.9 114.064 147.2C114.064 145.9 114.347 144.967 114.914 144.4C115.514 143.833 116.281 143.55 117.214 143.55H135.864C137.331 144.75 138.064 146.35 138.064 148.35C138.064 149.183 137.864 150.017 137.464 150.85C137.097 151.65 136.614 152.417 136.014 153.15L124.664 166.85H137.464C137.697 167.217 137.914 167.717 138.114 168.35C138.314 168.983 138.414 169.65 138.414 170.35C138.414 171.65 138.114 172.583 137.514 173.15C136.947 173.717 136.197 174 135.264 174H115.564C114.997 173.533 114.531 172.9 114.164 172.1C113.797 171.3 113.614 170.383 113.614 169.35C113.614 168.517 113.831 167.667 114.264 166.8C114.697 165.933 115.214 165.133 115.814 164.4L127.314 150.7ZM151.893 173.8C151.526 173.9 150.943 174 150.143 174.1C149.376 174.2 148.609 174.25 147.843 174.25C147.076 174.25 146.393 174.183 145.793 174.05C145.226 173.95 144.743 173.75 144.343 173.45C143.943 173.15 143.643 172.733 143.443 172.2C143.243 171.667 143.143 170.967 143.143 170.1V143.7C143.509 143.633 144.093 143.55 144.893 143.45C145.693 143.317 146.459 143.25 147.193 143.25C147.959 143.25 148.626 143.317 149.193 143.45C149.793 143.55 150.293 143.75 150.693 144.05C151.093 144.35 151.393 144.767 151.593 145.3C151.793 145.833 151.893 146.533 151.893 147.4V173.8ZM158.377 148.35C158.377 146.917 158.794 145.783 159.627 144.95C160.46 144.117 161.594 143.7 163.027 143.7H179.527C179.76 144.067 179.96 144.55 180.127 145.15C180.327 145.75 180.427 146.383 180.427 147.05C180.427 148.317 180.144 149.217 179.577 149.75C179.044 150.283 178.327 150.55 177.427 150.55H166.877V155.2H178.127C178.36 155.567 178.56 156.05 178.727 156.65C178.927 157.217 179.027 157.833 179.027 158.5C179.027 159.767 178.76 160.667 178.227 161.2C177.694 161.733 176.977 162 176.077 162H166.877V167.25H179.727C179.96 167.617 180.16 168.1 180.327 168.7C180.527 169.3 180.627 169.933 180.627 170.6C180.627 171.867 180.344 172.783 179.777 173.35C179.244 173.883 178.527 174.15 177.627 174.15H163.027C161.594 174.15 160.46 173.733 159.627 172.9C158.794 172.067 158.377 170.933 158.377 169.5V148.35Z" fill="#EB5757"/>
</svg>
